<?xml version="1.0" standalone="no"?>
<!DOCTYPE svg PUBLIC "-//W3C//DTD SVG 20010904//EN"
 "http://www.w3.org/TR/2001/REC-SVG-20010904/DTD/svg10.dtd">
<svg version="1.0" xmlns="http://www.w3.org/2000/svg"
 width="512.000000pt" height="512.000000pt" viewBox="0 0 512.000000 512.000000"
 preserveAspectRatio="xMidYMid meet">
<metadata>
Created by potrace 1.14, written by Peter Selinger 2001-2017
</metadata>
<g transform="translate(0.000000,512.000000) scale(0.100000,-0.100000)"
fill="#000000" stroke="none">
<path d="M1560 5107 c-53 -20 -53 -19 -150 -48 -41 -12 -79 -23 -85 -25 -14
-3 -126 -34 -145 -40 -8 -3 -17 -6 -20 -6 -3 -1 -20 -7 -37 -15 -18 -7 -33
-11 -33 -9 0 3 -16 -2 -35 -10 -19 -8 -37 -14 -40 -13 -3 0 -37 -9 -76 -21
-38 -12 -76 -23 -84 -24 -8 -1 -18 -5 -21 -9 -4 -4 -17 -7 -29 -7 -11 0 -26
-5 -33 -12 -7 -7 -12 -9 -12 -5 0 3 -19 0 -41 -9 -23 -8 -51 -16 -63 -19 -15
-3 -210 -61 -283 -85 -17 -5 -39 -12 -100 -30 -40 -12 -73 -27 -74 -33 -1 -14
0 -9 -39 -177 -18 -74 -38 -160 -45 -190 -7 -30 -25 -107 -40 -170 -15 -63
-28 -122 -30 -130 -2 -8 -13 -53 -24 -100 -19 -77 -21 -116 -21 -396 l0 -311
91 -79 c50 -43 105 -92 123 -109 18 -16 46 -41 63 -55 29 -24 143 -124 189
-165 12 -11 45 -40 74 -65 29 -25 64 -56 79 -68 14 -13 53 -47 85 -75 33 -29
70 -61 82 -72 13 -11 44 -39 71 -62 26 -24 64 -56 83 -73 20 -18 40 -28 50
-25 8 4 51 17 95 30 220 65 495 147 535 159 76 24 393 118 404 121 6 1 18 5
26 8 17 7 126 38 144 41 6 1 20 7 31 13 11 6 22 11 25 11 21 -1 122 28 130 37
6 7 20 52 31 101 11 49 23 96 26 104 3 8 7 24 9 35 5 29 12 60 14 60 1 0 3 11
5 25 6 34 10 51 18 75 6 19 9 32 22 103 3 15 8 34 11 42 3 8 8 26 10 40 3 14
7 32 11 40 3 8 7 24 9 35 3 23 10 56 22 105 5 19 10 40 11 45 4 21 12 55 52
220 22 94 42 181 45 195 2 14 11 56 20 94 12 49 13 70 5 75 -15 10 -110 91
-143 124 -16 15 -30 27 -33 27 -4 0 -78 65 -127 113 -16 15 -31 27 -33 27 -2
0 -15 10 -27 23 -21 20 -109 97 -165 145 -23 19 -127 110 -173 152 -15 14 -51
45 -80 70 -28 25 -62 54 -74 65 -13 11 -44 38 -69 60 -26 22 -71 61 -99 87
-57 51 -65 54 -118 35z"/>
<path d="M4055 4556 c-38 -13 -99 -31 -135 -41 -36 -10 -71 -23 -77 -28 -7 -5
-13 -7 -13 -4 0 3 -37 -6 -82 -20 -46 -14 -90 -27 -98 -28 -8 -2 -16 -4 -17
-5 -2 -2 -6 -3 -10 -4 -21 -6 -104 -31 -153 -46 -47 -16 -76 -24 -125 -36 -5
-1 -30 -9 -55 -17 -25 -9 -99 -31 -165 -50 -66 -20 -133 -40 -150 -47 -16 -6
-32 -11 -35 -11 -3 0 -23 -5 -45 -11 -22 -6 -42 -12 -45 -13 -68 -19 -120 -38
-121 -43 -1 -9 -3 -20 -23 -102 -8 -36 -17 -78 -20 -95 -3 -16 -11 -46 -16
-65 -6 -19 -13 -46 -16 -60 -3 -14 -17 -72 -30 -130 -14 -58 -27 -114 -30
-125 -10 -49 -14 -66 -38 -168 -14 -59 -28 -118 -30 -130 -2 -12 -9 -42 -16
-67 -15 -57 -21 -80 -25 -105 -1 -11 -10 -47 -19 -81 -8 -33 -17 -69 -19 -80
-1 -10 -6 -25 -10 -31 -5 -7 -6 -13 -3 -13 2 0 0 -15 -5 -32 -23 -79 -22 -89
13 -122 19 -17 49 -44 68 -60 39 -32 149 -128 189 -165 14 -12 46 -39 70 -60
24 -20 61 -52 82 -71 21 -19 57 -52 81 -72 24 -20 57 -49 74 -65 17 -15 40
-35 50 -43 11 -9 55 -47 99 -86 44 -39 93 -81 109 -95 16 -13 40 -35 55 -49
14 -14 55 -50 91 -80 36 -30 68 -59 71 -63 9 -12 40 -11 89 3 25 8 47 14 50
15 3 0 38 11 78 24 40 13 78 24 85 25 7 1 18 5 25 9 6 5 16 6 21 2 5 -3 12 -1
15 4 5 8 95 35 121 36 6 0 15 3 20 6 13 8 70 26 305 94 107 31 204 61 215 65
11 5 47 16 80 25 33 9 67 19 75 22 8 3 20 7 27 9 6 1 61 17 121 35 l110 33 8
40 c4 23 8 46 9 51 1 6 4 17 8 25 6 16 16 60 23 100 3 14 10 43 16 65 6 22 12
47 13 55 2 12 22 98 50 210 2 8 11 48 20 89 9 41 18 77 20 80 1 3 6 22 9 41 3
19 10 51 16 70 12 40 14 670 3 670 -5 0 -30 21 -58 46 -27 25 -77 69 -109 97
-33 29 -71 63 -85 76 -14 12 -46 39 -70 60 -24 20 -53 45 -65 56 -12 11 -53
47 -91 80 -38 33 -92 81 -120 107 -27 26 -53 48 -57 48 -3 0 -24 17 -46 38
-21 20 -67 62 -102 92 -35 30 -68 60 -74 65 -49 45 -89 75 -99 74 -7 0 -43
-11 -82 -23z"/>
<path d="M2338 2752 c-16 -2 -28 -8 -28 -14 0 -6 -2 -9 -6 -6 -3 3 -26 -1 -52
-9 -26 -8 -58 -17 -71 -19 -14 -3 -29 -8 -35 -12 -6 -3 -15 -7 -21 -7 -5 -1
-17 -4 -25 -8 -16 -7 -119 -36 -135 -38 -5 -1 -34 -10 -62 -20 -29 -10 -53
-16 -53 -13 0 2 -13 -2 -30 -11 -16 -8 -33 -16 -37 -16 -17 0 -60 -11 -95 -25
-21 -8 -38 -11 -38 -8 0 4 -6 2 -13 -4 -7 -6 -24 -13 -37 -15 -27 -5 -265 -74
-290 -84 -19 -8 -23 -9 -95 -28 -33 -9 -67 -19 -75 -22 -17 -7 -16 -6 -85 -26
-71 -21 -105 -35 -104 -44 1 -5 0 -10 -1 -13 -3 -8 -8 -32 -15 -65 -3 -16 -11
-48 -17 -70 -5 -22 -12 -47 -13 -55 -2 -8 -9 -37 -15 -65 -6 -27 -13 -58 -15
-68 -2 -10 -6 -26 -9 -35 -5 -16 -14 -57 -20 -92 -2 -8 -6 -22 -9 -30 -3 -8
-17 -67 -32 -130 -14 -63 -28 -123 -30 -134 -2 -10 -18 -80 -36 -155 -17 -75
-33 -143 -35 -151 -10 -43 -66 -277 -69 -291 -2 -9 12 -28 32 -45 20 -16 43
-36 52 -45 9 -9 39 -36 67 -60 28 -24 79 -69 114 -99 83 -71 174 -152 180
-159 3 -3 34 -30 70 -60 36 -30 72 -62 81 -70 8 -9 44 -41 79 -71 35 -30 74
-64 86 -75 20 -18 77 -68 154 -135 14 -12 47 -41 74 -64 27 -22 60 -52 73 -64
23 -23 26 -23 76 -11 29 7 55 12 60 11 4 -1 7 2 7 8 0 5 9 10 19 10 11 0 51
11 90 24 38 13 72 21 75 18 4 -3 6 0 6 7 0 7 4 10 9 7 4 -3 41 5 82 19 61 19
122 38 234 69 6 2 17 6 25 9 36 13 133 40 146 40 8 0 14 5 14 10 0 6 3 8 6 4
3 -3 25 1 47 10 23 8 49 16 57 18 16 3 347 101 442 131 31 10 55 21 52 26 -3
4 -2 14 3 21 4 6 9 21 10 31 2 11 10 49 19 85 9 37 17 75 19 85 12 55 57 243
62 256 4 8 6 18 5 22 -1 4 6 36 15 70 9 35 17 72 19 83 1 11 3 21 4 23 2 1 3
5 4 10 10 39 17 70 20 87 2 11 11 46 19 78 8 31 13 57 10 57 -3 0 0 7 7 15 7
8 10 15 7 15 -3 0 1 26 9 58 8 31 17 68 20 82 3 14 10 43 16 65 5 22 12 48 14
58 2 10 5 26 8 35 3 9 8 35 12 57 3 22 10 47 15 56 6 13 -5 28 -48 65 -32 27
-69 60 -84 74 -15 14 -49 44 -76 67 -26 23 -65 56 -85 75 -32 29 -73 65 -158
138 -62 53 -136 119 -193 172 -34 32 -65 58 -69 58 -3 0 -22 15 -41 33 -19 17
-62 57 -97 87 -34 30 -67 60 -74 65 -80 71 -153 132 -161 136 -5 3 -22 3 -37
1z"/>
</g>
</svg>
